<?xml version="1.0" standalone="no"?>
<!DOCTYPE svg PUBLIC "-//W3C//DTD SVG 20010904//EN"
 "http://www.w3.org/TR/2001/REC-SVG-20010904/DTD/svg10.dtd">
<svg version="1.0" xmlns="http://www.w3.org/2000/svg"
 width="920.000000pt" height="920.000000pt" viewBox="0 0 920.000000 920.000000"
 preserveAspectRatio="xMidYMid meet">

<g transform="translate(0.000000,920.000000) scale(0.100000,-0.100000)"
fill="#000000" stroke="none">
<path d="M6609 7736 c-2 -2 -245 -6 -539 -10 -294 -4 -742 -11 -995 -16 -253
-5 -802 -14 -1220 -20 -418 -5 -803 -12 -855 -15 -52 -3 -189 -5 -305 -6 -115
0 -250 -4 -300 -8 l-90 -6 -435 -304 c-239 -168 -460 -321 -490 -342 -49 -33
-341 -213 -942 -580 l-187 -114 37 -7 c64 -13 249 -9 322 6 115 24 145 44 320
207 91 85 277 259 415 388 137 128 259 239 270 247 11 7 322 119 691 248 l671
236 1619 -2 1619 -3 659 -234 660 -234 418 -391 c230 -215 436 -401 457 -413
108 -65 393 -92 504 -48 15 7 17 -2 17 -95 0 -94 -1 -101 -17 -94 -38 17 -280
17 -356 0 -135 -30 -177 -58 -337 -222 -79 -82 -592 -600 -1140 -1152 -547
-552 -1006 -1021 -1019 -1043 -28 -47 -55 -71 -826 -715 -566 -472 -640 -528
-620 -464 4 12 104 253 222 538 118 284 215 524 215 532 0 8 -70 380 -156 825
-85 446 -161 841 -168 879 -6 38 -14 64 -16 58 -1 -5 15 -116 37 -245 84 -484
251 -1492 251 -1513 0 -18 -77 -205 -393 -951 -43 -103 -64 -143 -76 -143 -10
0 -278 218 -597 485 -522 437 -731 615 -1335 1140 -101 88 -237 205 -301 259
-65 55 -115 102 -113 106 2 4 -15 24 -38 46 -40 37 -40 37 -9 3 18 -19 30 -38
27 -41 -3 -3 22 -30 57 -60 35 -30 144 -123 243 -208 99 -85 254 -220 345
-300 91 -80 201 -177 246 -215 44 -39 176 -153 294 -255 117 -102 422 -366
678 -588 l464 -402 87 0 86 0 61 52 c33 29 255 220 494 423 238 204 639 546
890 760 251 215 505 432 565 484 61 51 599 501 1198 999 l1087 905 0 118 0
117 -782 523 c-431 288 -902 603 -1047 701 l-265 178 -126 0 c-70 0 -129 -2
-131 -4z m237 -38 c-3 -13 -6 -26 -6 -30 0 -5 -696 -7 -1547 -6 -852 0 -1458
4 -1348 8 110 4 394 10 630 14 438 6 824 13 1520 26 215 3 473 7 574 8 l183 2
-6 -22z m60 -10 c5 -7 3 -8 -6 -3 -9 6 -12 -1 -8 -28 2 -20 0 -33 -4 -31 -10
6 -11 58 -1 67 9 9 11 9 19 -5z m-3173 -25 c-7 -2 -19 -2 -25 0 -7 3 -2 5 12
5 14 0 19 -2 13 -5z m-938 -52 c-11 -9 -995 -361 -1010 -361 -6 0 122 79 284
176 l293 176 182 8 c99 4 199 8 221 8 22 1 35 -2 30 -7z m5620 -1056 l360
-216 -105 3 c-152 5 -170 16 -450 258 -129 111 -239 207 -245 213 -15 15 41
-18 440 -258z m145 9 c22 -15 40 -29 40 -31 0 -5 -27 11 -75 44 -11 7 -16 13
-12 13 4 0 25 -12 47 -26z m305 -463 c-37 -34 -746 -641 -749 -641 -2 0 125
125 282 277 158 153 306 296 330 319 23 24 48 45 55 47 22 9 91 7 82 -2z"/>
<path d="M2920 7515 c0 -17 -2 -18 -11 -5 -9 13 -10 13 -6 0 2 -8 9 -16 15
-16 7 -1 14 -3 17 -4 3 -1 13 -3 23 -4 9 -1 22 -4 28 -8 6 -4 11 -1 11 7 0 8
-4 12 -9 9 -4 -3 -11 2 -14 11 -6 14 -8 14 -19 -2 -13 -17 -14 -16 -24 7 -8
21 -10 22 -11 5z"/>
<path d="M5823 7238 c-25 -7 -33 -14 -33 -32 0 -63 116 -86 135 -26 13 41 -45
73 -102 58z m32 -17 c-3 -6 -11 -9 -16 -6 -5 3 -6 -2 -3 -12 5 -16 4 -16 -10
1 -9 11 -16 16 -16 11 0 -5 7 -16 16 -26 9 -11 11 -19 5 -23 -13 -8 -34 31
-27 49 2 7 15 15 28 17 28 5 32 3 23 -11z m45 -1 c21 -13 19 -32 -4 -53 -20
-17 -21 -17 -27 0 -7 17 -8 17 -8 0 -1 -10 -5 -16 -10 -12 -12 7 -6 42 10 61
13 16 19 17 39 4z"/>
<path d="M5869 7203 c-13 -16 -12 -17 4 -4 9 7 17 15 17 17 0 8 -8 3 -21 -13z"/>
<path d="M5890 7195 c-7 -9 -11 -17 -9 -20 3 -2 10 5 17 15 14 24 10 26 -8 5z"/>
<path d="M5937 7122 l-27 -28 383 -150 c210 -83 406 -161 435 -172 83 -34 60
-16 -40 31 -51 24 -233 112 -404 196 -172 83 -314 151 -316 151 -2 0 -16 -13
-31 -28z"/>
<path d="M7627 6948 c1 -46 4 -177 7 -291 2 -115 8 -213 13 -218 5 -5 56 -26
114 -46 97 -35 112 -37 214 -36 108 1 182 14 255 46 l35 15 -30 1 c-179 7
-248 20 -381 72 -120 47 -99 8 -171 319 -25 113 -49 208 -53 213 -3 4 -5 -30
-3 -75z"/>
<path d="M7052 6934 c-39 -41 -132 -210 -132 -238 0 -6 89 -50 198 -98 108
-48 233 -103 277 -123 44 -20 76 -32 70 -27 -5 5 -90 64 -188 132 -113 77
-182 132 -188 147 -11 28 6 65 45 102 14 14 26 35 26 49 0 28 -39 102 -54 102
-5 0 -29 -21 -54 -46z"/>
<path d="M5260 6834 c-30 -25 -173 -133 -317 -242 -157 -117 -258 -199 -250
-203 33 -17 209 -53 263 -53 34 -1 60 -4 58 -7 -4 -7 225 -23 232 -16 4 4
-126 19 -183 21 -17 1 -29 4 -27 7 2 3 -20 11 -49 18 -29 6 -63 14 -76 18 -17
4 -22 3 -17 -6 4 -6 11 -9 16 -6 5 3 12 1 15 -5 4 -7 -3 -10 -22 -7 -18 3 -27
9 -25 19 1 10 -12 19 -38 27 -22 6 -40 15 -39 19 0 4 100 93 222 199 287 248
303 262 297 262 -3 0 -30 -20 -60 -45z m-235 -200 c-16 -14 -48 -42 -70 -63
-22 -21 -60 -53 -85 -72 -25 -18 -51 -42 -58 -51 -7 -10 -18 -15 -24 -12 -6 4
-5 -2 1 -15 7 -12 9 -27 5 -34 -5 -8 -2 -7 9 2 16 13 22 8 18 -13 -1 -5 5 -4
13 4 12 9 16 9 16 1 0 -7 4 -10 8 -7 5 3 9 -1 9 -8 0 -14 -7 -13 -44 1 -25 9
-31 10 -49 12 -9 1 -12 6 -8 14 6 9 5 9 -7 0 -9 -7 -20 -8 -29 -3 -8 5 -18 6
-22 4 -4 -3 -8 -3 -8 0 0 6 103 81 112 81 4 0 13 7 20 16 21 26 108 92 108 83
0 -5 7 -1 14 9 13 17 86 75 96 76 3 0 -8 -11 -25 -25z m-35 -290 c0 -2 -11 -4
-25 -4 -14 0 -25 4 -25 9 0 4 11 6 25 3 14 -2 25 -6 25 -8z"/>
<path d="M4879 6523 c-13 -16 -12 -17 4 -4 9 7 17 15 17 17 0 8 -8 3 -21 -13z"/>
<path d="M4749 6423 c-7 -10 -10 -15 -5 -11 5 4 18 3 30 -3 19 -9 19 -9 4 4
-10 8 -15 17 -11 20 3 4 4 7 1 7 -3 0 -12 -8 -19 -17z"/>
<path d="M7215 6309 c-215 -38 -388 -46 -579 -25 -82 9 -151 14 -153 13 -1 -2
57 -18 130 -35 113 -27 153 -32 257 -32 153 0 293 22 433 66 59 19 107 37 107
40 0 7 -26 3 -195 -27z"/>
<path d="M7728 6323 c7 -3 16 -2 19 1 4 3 -2 6 -13 5 -11 0 -14 -3 -6 -6z"/>
<path d="M307 6130 c-46 -9 -52 -14 -32 -30 13 -11 14 -10 9 4 -4 11 0 16 12
17 11 1 69 5 129 9 l110 7 -95 0 c-52 0 -112 -3 -133 -7z"/>
<path d="M553 6123 c9 -2 23 -2 30 0 6 3 -1 5 -18 5 -16 0 -22 -2 -12 -5z"/>
<path d="M620 6110 c34 -11 60 -11 35 0 -11 5 -29 8 -40 8 -16 0 -15 -2 5 -8z"/>
<path d="M6780 6099 c-178 -23 -340 -69 -428 -122 -63 -38 -191 -168 -244
-248 -21 -31 -155 -315 -299 -630 -307 -674 -313 -686 -305 -679 3 4 68 108
145 233 302 491 374 593 574 827 113 132 359 398 369 399 3 1 -50 -122 -119
-271 -200 -437 -199 -410 -12 -218 88 91 222 229 296 307 75 79 138 142 139
140 2 -2 -53 -125 -122 -273 -69 -148 -137 -293 -150 -322 -22 -50 -6 -35 243
220 147 150 332 339 411 419 l144 147 -53 15 c-84 24 -213 46 -339 57 -129 11
-158 11 -250 -1z"/>
<path d="M690 6093 c8 -3 32 -14 53 -25 20 -10 37 -16 37 -13 0 7 -78 45 -92
44 -9 0 -8 -2 2 -6z"/>
<path d="M300 6087 c0 -3 105 -95 233 -203 127 -109 261 -223 296 -253 36 -31
61 -50 57 -43 -4 6 -109 98 -234 204 -125 106 -255 216 -289 246 -35 30 -63
52 -63 49z"/>
<path d="M7798 6074 c-51 -16 -66 -38 -21 -29 15 2 77 7 138 11 130 8 203 -5
266 -45 l44 -28 37 21 c21 12 38 24 38 28 0 9 -83 34 -159 48 -80 15 -287 11
-343 -6z"/>
<path d="M550 5945 c13 -14 26 -25 28 -25 3 0 -5 11 -18 25 -13 14 -26 25 -28
25 -3 0 5 -11 18 -25z"/>
<path d="M635 5960 c27 -12 43 -12 25 0 -8 5 -22 9 -30 9 -10 0 -8 -3 5 -9z"/>
<path d="M7960 5931 c64 -23 100 -60 100 -102 0 -16 2 -29 5 -29 10 0 75 69
75 80 0 5 -18 22 -40 36 -33 22 -55 28 -118 31 l-77 3 55 -19z"/>
<path d="M740 5916 c0 -2 8 -10 18 -17 15 -13 16 -12 3 4 -13 16 -21 21 -21
13z"/>
<path d="M635 5870 c21 -22 41 -40 44 -40 3 0 -13 18 -34 40 -21 22 -41 40
-44 40 -3 0 13 -18 34 -40z"/>
<path d="M835 5834 c126 -123 423 -404 429 -404 6 0 -314 305 -424 405 l-65
58 60 -59z"/>
<path d="M710 5805 c13 -14 26 -25 28 -25 3 0 -5 11 -18 25 -13 14 -26 25 -28
25 -3 0 5 -11 18 -25z"/>
<path d="M7851 5770 c-17 -22 -208 -248 -424 -503 -216 -255 -416 -492 -446
-528 -72 -86 74 62 685 696 331 342 306 314 294 336 -11 20 -41 39 -63 39 -7
0 -28 -18 -46 -40z"/>
<path d="M750 5768 c3 -2 28 -24 55 -48 48 -42 48 -42 15 -6 -19 21 -44 42
-55 48 -11 6 -18 9 -15 6z"/>
<path d="M863 5674 c9 -15 127 -118 127 -111 0 2 -30 31 -67 63 -37 33 -64 54
-60 48z"/>
<path d="M900 5576 c0 -5 197 -173 550 -470 63 -54 93 -76 65 -50 -27 26 -88
79 -134 118 -46 39 -119 100 -161 136 -43 36 -132 111 -199 168 -66 56 -121
101 -121 98z"/>
<path d="M1011 5543 c1 -9 249 -227 249 -219 0 2 -56 54 -125 116 -69 61 -125
107 -124 103z"/>
<path d="M4691 5454 c0 -11 3 -14 6 -6 3 7 2 16 -1 19 -3 4 -6 -2 -5 -13z"/>
<path d="M1382 5315 c59 -60 109 -107 110 -105 2 3 -46 52 -107 110 l-110 105
107 -110z"/>
<path d="M4702 5400 c0 -14 2 -19 5 -12 2 6 2 18 0 25 -3 6 -5 1 -5 -13z"/>
<path d="M1305 5280 c21 -22 41 -40 44 -40 3 0 -13 18 -34 40 -21 22 -41 40
-44 40 -3 0 13 -18 34 -40z"/>
<path d="M1363 5234 c9 -15 127 -118 127 -111 0 2 -30 31 -67 63 -37 33 -64
54 -60 48z"/>
<path d="M1625 5080 c60 -60 112 -110 115 -110 2 0 -45 50 -105 110 -60 61
-112 110 -115 110 -2 0 45 -49 105 -110z"/>
<path d="M1550 5065 c13 -14 26 -25 28 -25 3 0 -5 11 -18 25 -13 14 -26 25
-28 25 -3 0 5 -11 18 -25z"/>
<path d="M1611 5013 c0 -5 14 -19 32 -32 l32 -25 -29 32 c-31 33 -36 37 -35
25z"/>
<path d="M1605 4975 c66 -61 275 -237 275 -231 0 2 -57 53 -127 113 -144 122
-208 173 -148 118z"/>
<path d="M1775 4941 c42 -47 445 -434 445 -428 0 2 -107 107 -237 233 -131
126 -224 213 -208 195z"/>
<path d="M1720 4918 c24 -27 45 -48 47 -48 8 0 0 9 -44 50 l-48 45 45 -47z"/>
<path d="M1780 4867 c0 -3 73 -69 163 -147 89 -78 135 -116 102 -85 -82 77
-265 238 -265 232z"/>
<path d="M1893 4734 c9 -15 127 -118 127 -111 0 2 -30 31 -67 63 -37 33 -64
54 -60 48z"/>
<path d="M2030 4617 c0 -3 27 -28 60 -57 33 -29 60 -50 60 -47 0 3 -27 28 -60
57 -33 29 -60 50 -60 47z"/>
<path d="M4602 3058 l-84 -20 8 -71 c4 -40 8 -81 9 -92 2 -11 6 -64 10 -119
l8 -99 78 209 c43 115 79 210 79 212 0 4 -26 0 -108 -20z m55 -18 c1 -11 -2
-22 -8 -25 -5 -4 -6 2 -2 12 6 16 4 16 -18 -2 -13 -11 -18 -13 -11 -4 6 9 8
20 4 24 -4 5 -2 5 5 1 6 -3 14 -2 18 4 9 14 11 13 12 -10z m20 -2 c-3 -8 -6
-5 -6 6 -1 11 2 17 5 13 3 -3 4 -12 1 -19z m-67 4 c0 -5 -6 -16 -13 -27 -11
-14 -16 -15 -22 -5 -5 8 -4 11 3 6 6 -3 13 3 17 14 6 20 15 27 15 12z m-56
-34 c-12 -17 -12 -30 -2 -50 4 -9 4 -19 0 -22 -5 -3 -9 0 -10 7 -1 7 -3 27 -5
44 -3 18 -1 30 4 27 5 -3 9 0 9 7 0 7 3 10 6 6 3 -3 2 -12 -2 -19z m107 -11
c-6 -8 -7 -17 -3 -21 4 -4 3 -7 -3 -6 -22 5 -27 -1 -14 -17 11 -15 11 -16 -1
-6 -10 10 -17 10 -27 1 -8 -6 -13 -7 -12 -2 4 20 -2 26 -15 15 -10 -9 -16 -9
-21 -1 -4 6 -4 14 -1 17 3 4 6 1 6 -6 0 -7 5 -9 10 -6 6 4 7 12 3 18 -3 7 3 4
14 -6 19 -16 21 -17 34 0 12 15 12 16 -3 10 -10 -3 -20 -2 -23 3 -3 4 6 7 20
5 14 -1 28 2 31 6 3 5 8 9 11 9 3 0 0 -6 -6 -13z m-58 -75 c4 9 6 9 6 1 1 -19
-19 -26 -25 -8 -6 14 -8 14 -19 -1 -9 -14 -14 -14 -20 -4 -5 8 -4 11 2 7 6 -4
14 1 18 11 6 16 7 16 20 -1 10 -13 14 -15 18 -5z m18 -29 c-12 -20 -14 -14 -5
12 4 9 9 14 11 11 3 -2 0 -13 -6 -23z m-42 0 c-3 -21 2 -26 12 -13 9 13 10 12
5 -2 -3 -10 -9 -25 -13 -35 -4 -10 -2 -14 4 -10 13 8 11 -18 -1 -30 -4 -4 -6
-3 -4 4 2 6 -1 10 -7 10 -5 -1 -8 -6 -7 -12 7 -18 11 -48 8 -44 -3 2 -5 9 -6
14 -1 6 -6 18 -11 27 -6 10 -5 19 1 23 5 3 10 11 10 16 0 6 -4 8 -8 5 -12 -7
-11 26 1 42 11 14 18 16 16 5z"/>
<path d="M4560 2871 c0 -5 5 -13 10 -16 6 -3 10 -2 10 4 0 5 -4 13 -10 16 -5
3 -10 2 -10 -4z"/>
</g>
</svg>
